<svg xmlns="http://www.w3.org/2000/svg" width="1200" height="630" viewBox="0 0 1200 630" role="img" aria-labelledby="title desc">
  <title id="title">SEO, AEO a GEO</title>
  <desc id="desc">Ilustrace cesty od klasického vyhledávání k AI odpovědím.</desc>
  <defs>
    <linearGradient id="bg" x1="0%" y1="0%" x2="100%" y2="100%">
      <stop offset="0%" stop-color="#f8fafc" />
      <stop offset="100%" stop-color="#dbeafe" />
    </linearGradient>
  </defs>
  <rect width="1200" height="630" rx="32" fill="url(#bg)" />
  <rect x="70" y="70" width="320" height="490" rx="28" fill="#ffffff" stroke="#cbd5e1" stroke-width="3" />
  <rect x="440" y="70" width="320" height="490" rx="28" fill="#ffffff" stroke="#93c5fd" stroke-width="3" />
  <rect x="810" y="70" width="320" height="490" rx="28" fill="#0f172a" />
  <text x="120" y="150" font-family="Outfit, Arial, sans-serif" font-size="34" font-weight="700" fill="#0f172a">Dřív</text>
  <text x="490" y="150" font-family="Outfit, Arial, sans-serif" font-size="34" font-weight="700" fill="#1d4ed8">Teď</text>
  <text x="860" y="150" font-family="Outfit, Arial, sans-serif" font-size="34" font-weight="700" fill="#ffffff">AI odpověď</text>
  <circle cx="230" cy="250" r="44" fill="#dbeafe" />
  <circle cx="230" cy="350" r="44" fill="#dbeafe" />
  <circle cx="230" cy="450" r="44" fill="#dbeafe" />
  <rect x="280" y="225" width="70" height="12" rx="6" fill="#94a3b8" />
  <rect x="280" y="245" width="90" height="12" rx="6" fill="#cbd5e1" />
  <rect x="280" y="325" width="70" height="12" rx="6" fill="#94a3b8" />
  <rect x="280" y="345" width="90" height="12" rx="6" fill="#cbd5e1" />
  <rect x="280" y="425" width="70" height="12" rx="6" fill="#94a3b8" />
  <rect x="280" y="445" width="90" height="12" rx="6" fill="#cbd5e1" />
  <circle cx="600" cy="280" r="80" fill="#dbeafe" stroke="#2563eb" stroke-width="6" />
  <path d="M560 280h80M600 240v80" stroke="#2563eb" stroke-width="8" stroke-linecap="round" />
  <rect x="520" y="405" width="160" height="18" rx="9" fill="#60a5fa" />
  <rect x="550" y="435" width="100" height="18" rx="9" fill="#bfdbfe" />
  <path d="M395 315h70" stroke="#2563eb" stroke-width="8" stroke-linecap="round" />
  <path d="M760 315h70" stroke="#2563eb" stroke-width="8" stroke-linecap="round" />
  <path d="M450 315l-18 -16v32z" fill="#2563eb" />
  <path d="M830 315l-18 -16v32z" fill="#2563eb" />
  <rect x="860" y="220" width="220" height="24" rx="12" fill="#60a5fa" />
  <rect x="860" y="270" width="180" height="20" rx="10" fill="#cbd5e1" />
  <rect x="860" y="305" width="220" height="20" rx="10" fill="#cbd5e1" />
  <rect x="860" y="340" width="160" height="20" rx="10" fill="#cbd5e1" />
  <rect x="860" y="405" width="130" height="44" rx="22" fill="#2563eb" />
  <text x="924" y="434" text-anchor="middle" font-family="Outfit, Arial, sans-serif" font-size="18" font-weight="700" fill="#ffffff">Shrnutí</text>
</svg>
